<?xml version="1.0" encoding="UTF-8"?>
<!-- Generator: visioncortex VTracer 0.6.3 -->
<svg version="1.1" xmlns="http://www.w3.org/2000/svg" width="1280" height="537">
<path d="M0 0 C1.25 0 1.25 0 2.53 0 C3.81 -0 3.81 -0 5.12 -0.01 C6.93 -0.02 8.74 -0.02 10.55 -0.01 C13.33 -0.01 16.1 -0.03 18.87 -0.06 C20.63 -0.06 22.39 -0.06 24.15 -0.06 C24.98 -0.07 25.81 -0.08 26.67 -0.09 C32.48 -0.04 32.48 -0.04 34.57 1.65 C36.5 4.05 37.32 6.57 38.36 9.46 C38.58 10.06 38.8 10.67 39.03 11.3 C39.74 13.27 40.45 15.26 41.15 17.24 C41.65 18.62 42.15 20 42.65 21.38 C45.85 30.26 48.99 39.17 52.09 48.1 C54.37 54.66 56.7 61.2 59.03 67.74 C59.64 69.47 59.64 69.47 60.27 71.22 C62.67 77.97 65.18 84.66 67.77 91.34 C69.28 95.28 70.66 99.25 72.03 103.24 C75.18 112.34 78.46 121.39 81.78 130.43 C82.03 131.1 82.27 131.78 82.53 132.47 C83.23 134.4 83.94 136.32 84.65 138.25 C85.06 139.37 85.47 140.49 85.89 141.64 C86.82 144.23 86.82 144.23 87.9 146.3 C89.17 145.26 89.17 145.26 89.02 142.93 C89.02 141.87 89.02 140.82 89.02 139.72 C89.02 138.51 89.02 137.3 89.02 136.05 C89.01 134.7 89.01 133.34 89 131.99 C89 130.57 89 129.15 89 127.74 C88.99 124.68 88.99 121.62 88.98 118.56 C88.97 113.73 88.96 108.9 88.96 104.07 C88.94 93.81 88.92 83.56 88.9 73.3 C88.88 62.23 88.86 51.17 88.85 40.1 C88.85 35.29 88.84 30.48 88.82 25.68 C88.81 22.69 88.81 19.71 88.81 16.72 C88.81 15.33 88.8 13.94 88.8 12.55 C88.79 10.66 88.79 8.77 88.79 6.88 C88.79 5.82 88.79 4.76 88.78 3.67 C88.9 1.3 88.9 1.3 89.9 0.3 C92.91 0.2 95.89 0.16 98.9 0.17 C99.8 0.17 100.71 0.17 101.64 0.17 C103.56 0.17 105.47 0.17 107.39 0.17 C110.33 0.18 113.26 0.17 116.2 0.17 C118.06 0.17 119.92 0.17 121.78 0.17 C122.66 0.17 123.54 0.17 124.45 0.16 C130.67 0.19 130.67 0.19 132.9 1.3 C132.9 85.45 132.9 169.6 132.9 256.3 C125.02 257.88 117.43 259.06 109.47 259.93 C108.32 260.06 107.17 260.2 105.98 260.33 C98.92 261.12 92 261.48 84.9 261.3 C84.9 260.31 84.9 259.32 84.9 258.3 C84.24 258.3 83.58 258.3 82.9 258.3 C82.73 257.7 82.56 257.09 82.39 256.47 C80.82 251.03 78.96 245.83 76.81 240.6 C75.61 237.56 74.8 234.44 73.9 231.3 C73.27 229.69 72.63 228.09 71.97 226.49 C70.59 223.13 69.41 219.8 68.4 216.3 C67.16 211.99 65.58 207.89 63.88 203.74 C61.74 198.39 60.07 192.9 58.47 187.37 C57.19 183.05 55.59 178.96 53.87 174.8 C52.91 172.33 52.14 169.86 51.4 167.3 C50.16 162.99 48.58 158.89 46.88 154.74 C44.42 148.58 42.55 142.23 40.75 135.86 C39.67 132.6 38.26 129.46 36.9 126.3 C36.9 173.16 36.9 220.02 36.9 268.3 C1.9 273.3 1.9 273.3 -7.1 273.3 C-8.28 270.93 -8.22 269.51 -8.22 266.86 C-8.23 265.92 -8.23 264.98 -8.23 264.01 C-8.23 262.97 -8.23 261.94 -8.23 260.86 C-8.23 259.77 -8.23 258.67 -8.24 257.53 C-8.24 253.83 -8.24 250.12 -8.24 246.41 C-8.24 243.77 -8.25 241.12 -8.25 238.47 C-8.26 232.01 -8.26 225.56 -8.26 219.1 C-8.26 213.85 -8.27 208.6 -8.27 203.35 C-8.28 188.49 -8.28 173.63 -8.28 158.76 C-8.28 157.96 -8.28 157.16 -8.28 156.33 C-8.28 155.53 -8.28 154.73 -8.28 153.9 C-8.28 140.88 -8.29 127.86 -8.3 114.84 C-8.32 101.49 -8.33 88.13 -8.32 74.78 C-8.32 67.28 -8.33 59.77 -8.34 52.27 C-8.35 45.88 -8.35 39.5 -8.34 33.11 C-8.34 29.85 -8.34 26.59 -8.35 23.33 C-8.36 19.8 -8.35 16.27 -8.34 12.74 C-8.35 11.7 -8.35 10.66 -8.36 9.59 C-8.35 8.65 -8.35 7.71 -8.34 6.75 C-8.34 5.93 -8.35 5.11 -8.35 4.27 C-7.73 -0.59 -4.03 0.05 0 0 Z M87.9 148.3 C88.56 149.62 89.22 150.94 89.9 152.3 C89.9 150.98 89.9 149.66 89.9 148.3 C89.24 148.3 88.58 148.3 87.9 148.3 Z " fill="#D9232D" transform="translate(139.09580993652344,130.6964569091797)"/>
<path d="M0 0 C6.48 -0.13 12.95 -0.21 19.43 -0.27 C21.64 -0.3 23.84 -0.33 26.04 -0.38 C29.21 -0.44 32.38 -0.47 35.55 -0.49 C37.03 -0.53 37.03 -0.53 38.53 -0.57 C45.37 -0.57 45.37 -0.57 48.55 2.29 C50.88 6.64 50.88 6.64 51.71 8.86 C51.98 9.58 52.25 10.29 52.53 11.02 C52.81 11.78 53.09 12.53 53.38 13.31 C53.83 14.52 53.83 14.52 54.29 15.74 C55.21 18.16 56.1 20.58 57 23 C57.92 25.46 58.83 27.92 59.75 30.38 C59.98 30.98 60.2 31.59 60.44 32.22 C64.79 43.88 69.43 55.43 74 67 C76.98 64.46 78.19 61.71 79.71 58.13 C80.23 56.93 80.75 55.73 81.28 54.49 C81.83 53.18 82.38 51.87 82.94 50.56 C83.51 49.22 84.09 47.88 84.66 46.54 C87.31 40.35 89.94 34.15 92.56 27.95 C93.37 26.03 94.19 24.1 95 22.18 C96.02 19.77 97.03 17.37 98.04 14.96 C98.5 13.87 98.97 12.78 99.44 11.66 C99.84 10.71 100.24 9.75 100.65 8.78 C101.1 7.86 101.54 6.94 102 6 C102.51 4.91 103.02 3.81 103.54 2.69 C106.26 -0.28 106.66 -0.42 110.45 -0.7 C112.27 -0.7 114.09 -0.68 115.91 -0.62 C117.36 -0.61 117.36 -0.61 118.83 -0.6 C121.91 -0.58 124.98 -0.51 128.06 -0.44 C130.14 -0.42 132.21 -0.4 134.29 -0.38 C138.09 -0.34 141.89 -0.29 145.68 -0.21 C146.45 -0.19 147.21 -0.18 148 -0.16 C150 0 150 0 153 1 C152.32 5.9 150.36 10.07 148.35 14.54 C147.98 15.38 147.62 16.21 147.24 17.06 C146.45 18.85 145.66 20.63 144.86 22.41 C142.78 27.09 140.71 31.78 138.64 36.46 C138.03 37.85 138.03 37.85 137.4 39.27 C134.33 46.23 131.32 53.23 128.38 60.25 C124.28 70.02 120.09 79.76 115.88 89.48 C114.83 91.91 113.78 94.34 112.73 96.77 C109.91 103.31 107.1 109.84 104.13 116.3 C103.74 117.18 103.34 118.05 102.94 118.95 C102.26 120.45 101.57 121.94 100.85 123.42 C98.12 129.57 99.8 133.81 102.02 139.7 C103.23 142.79 104.48 145.87 105.75 148.94 C109.22 157.46 112.52 165.98 115.45 174.7 C116.97 179.03 118.69 183.28 120.41 187.54 C122.67 193.16 124.89 198.8 127.1 204.44 C127.46 205.36 127.83 206.29 128.2 207.24 C129.34 210.16 130.48 213.08 131.62 216 C132.21 217.5 132.21 217.5 132.81 219.04 C135.18 225.09 137.54 231.14 139.9 237.19 C140.94 239.84 141.97 242.48 143 245.12 C144.45 248.83 145.9 252.54 147.35 256.25 C147.86 257.58 148.38 258.9 148.9 260.23 C149.61 262.03 150.31 263.84 151.01 265.64 C151.4 266.64 151.78 267.63 152.18 268.66 C153 271 153 271 153 273 C145.8 273.27 138.97 272.24 131.88 271.12 C129.47 270.76 127.07 270.39 124.66 270.02 C123.51 269.85 122.37 269.67 121.18 269.49 C117.23 268.88 113.27 268.31 109.31 267.75 C108.26 267.6 107.2 267.45 106.11 267.3 C105.42 267.2 104.72 267.1 104 267 C103.67 265.68 103.34 264.36 103 263 C102.34 263 101.68 263 101 263 C95.06 248.42 95.06 248.42 93.5 243.5 C91.83 238.28 89.73 233.24 87.68 228.16 C85.9 223.77 84.16 219.36 82.44 214.94 C82.14 214.18 81.85 213.43 81.55 212.66 C79.25 206.72 77.11 200.74 75.04 194.72 C74.05 191.84 74.05 191.84 72 189 C71.82 189.55 71.65 190.11 71.46 190.68 C69.75 195.97 67.79 201.07 65.56 206.16 C65.07 207.28 65.07 207.28 64.58 208.43 C63.53 210.83 62.49 213.23 61.44 215.62 C60.72 217.28 60 218.94 59.28 220.59 C57.85 223.87 56.42 227.15 54.99 230.43 C53.24 234.45 51.5 238.48 49.76 242.51 C49.29 243.58 48.83 244.65 48.35 245.76 C47.51 247.71 46.67 249.66 45.83 251.61 C45.47 252.46 45.1 253.3 44.72 254.17 C44.41 254.89 44.1 255.62 43.78 256.36 C43 258 43 258 42 259 C36 259.44 29.99 258.81 24.03 258.12 C23.22 258.04 22.41 257.95 21.58 257.86 C19.03 257.58 16.48 257.29 13.94 257 C12.2 256.81 10.45 256.61 8.71 256.42 C4.47 255.95 0.24 255.48 -4 255 C-3.45 251.01 -2.61 247.66 -0.95 244 C-0.31 242.57 -0.31 242.57 0.34 241.11 C0.8 240.08 1.27 239.06 1.75 238 C2.75 235.76 3.76 233.51 4.76 231.27 C5.29 230.08 5.82 228.9 6.36 227.69 C9.17 221.4 11.89 215.07 14.62 208.75 C15.18 207.46 15.74 206.17 16.3 204.88 C19.73 196.95 23.14 189.01 26.54 181.07 C28.77 175.86 31.01 170.66 33.27 165.46 C33.55 164.8 33.84 164.14 34.14 163.46 C35.55 160.19 36.97 156.92 38.4 153.65 C39.44 151.25 40.48 148.85 41.51 146.44 C42.5 144.17 43.49 141.9 44.5 139.64 C44.96 138.6 45.42 137.55 45.89 136.47 C46.3 135.56 46.71 134.64 47.13 133.7 C48.8 128.51 48.13 124.57 45.94 119.69 C45.49 118.65 45.03 117.62 44.57 116.55 C44.05 115.38 43.53 114.21 43 113 C41.78 110.11 40.57 107.21 39.38 104.31 C39.09 103.62 38.8 102.94 38.5 102.23 C37.04 98.72 35.71 95.2 34.53 91.59 C32.95 86.73 31.06 82.03 29.12 77.31 C26.29 70.31 23.64 63.29 21.14 56.16 C19.66 52.06 17.96 48.07 16.25 44.06 C14.89 40.74 13.69 37.39 12.5 34 C9.84 26.42 6.75 19.06 3.57 11.69 C3.12 10.62 2.66 9.54 2.19 8.44 C1.77 7.47 1.35 6.5 0.92 5.5 C0 3 0 3 0 0 Z M75 68 C76 71 76 71 76 71 Z " fill="#D9232D" transform="translate(994,131)"/>
<path d="M0 0 C1.28 0 1.28 0 2.58 0 C3.55 -0 4.53 -0.01 5.54 -0.01 C6.61 -0.01 7.68 0 8.79 0.01 C10.48 0 10.48 0 12.21 0 C15.96 -0 19.7 0.01 23.45 0.02 C26.04 0.02 28.63 0.02 31.23 0.02 C36.67 0.02 42.11 0.03 47.55 0.04 C53.84 0.06 60.14 0.06 66.43 0.06 C72.48 0.06 78.53 0.07 84.58 0.08 C87.16 0.08 89.74 0.08 92.31 0.08 C95.91 0.08 99.51 0.09 103.1 0.1 C104.18 0.1 105.25 0.1 106.36 0.1 C107.34 0.11 108.31 0.11 109.32 0.12 C110.17 0.12 111.02 0.12 111.9 0.12 C113.95 0.25 113.95 0.25 115.95 1.25 C115.95 15.11 115.95 28.97 115.95 43.25 C91.2 43.25 66.45 43.25 40.95 43.25 C41.28 61.73 41.61 80.21 41.95 99.25 C59.63 99.21 59.63 99.21 77.31 99.16 C79.52 99.16 81.73 99.15 83.94 99.15 C85.1 99.15 86.25 99.14 87.44 99.14 C89.09 99.14 89.09 99.14 90.76 99.14 C91.72 99.13 92.67 99.13 93.66 99.13 C95.95 99.25 95.95 99.25 97.95 100.25 C97.95 114.44 97.95 128.63 97.95 143.25 C79.14 143.25 60.33 143.25 40.95 143.25 C41.28 163.71 41.61 184.17 41.95 205.25 C50.36 204.26 50.36 204.26 58.95 203.25 C63.07 202.92 67.17 202.61 71.3 202.36 C72.37 202.3 73.44 202.23 74.54 202.16 C76.76 202.03 78.99 201.89 81.21 201.76 C84.6 201.56 88 201.35 91.39 201.13 C93.57 201 95.75 200.87 97.92 200.74 C98.93 200.67 99.93 200.61 100.97 200.54 C101.91 200.49 102.86 200.43 103.83 200.38 C104.65 200.33 105.48 200.28 106.32 200.23 C109.55 200.25 112.75 200.79 115.95 201.25 C115.95 215.44 115.95 229.63 115.95 244.25 C110.56 244.61 110.56 244.61 105.05 244.98 C100.08 245.32 95.11 245.66 90.14 246 C88.84 246.09 87.55 246.18 86.21 246.27 C65.14 247.71 44.08 249.29 23.02 251.03 C22.01 251.11 21 251.19 19.96 251.28 C18.1 251.43 16.23 251.58 14.38 251.74 C8.55 252.21 2.79 252.33 -3.05 252.25 C-4.2 249.96 -4.18 248.68 -4.18 246.14 C-4.18 245.27 -4.19 244.4 -4.19 243.51 C-4.19 242.55 -4.19 241.59 -4.19 240.61 C-4.19 239.59 -4.19 238.58 -4.19 237.54 C-4.2 234.12 -4.2 230.7 -4.2 227.29 C-4.2 224.85 -4.2 222.41 -4.21 219.97 C-4.22 214.01 -4.22 208.06 -4.22 202.11 C-4.22 197.27 -4.22 192.43 -4.22 187.6 C-4.23 173.89 -4.24 160.19 -4.24 146.49 C-4.24 145.75 -4.24 145.01 -4.24 144.25 C-4.24 143.51 -4.24 142.77 -4.24 142.01 C-4.24 130.01 -4.25 118.01 -4.26 106.01 C-4.27 93.7 -4.28 81.39 -4.28 69.08 C-4.28 62.16 -4.28 55.24 -4.29 48.33 C-4.3 41.83 -4.3 35.33 -4.3 28.83 C-4.3 26.43 -4.3 24.04 -4.3 21.65 C-4.31 18.4 -4.31 15.14 -4.3 11.89 C-4.3 10.93 -4.31 9.98 -4.31 8.99 C-4.31 7.69 -4.31 7.69 -4.3 6.36 C-4.3 5.61 -4.3 4.86 -4.3 4.09 C-3.92 1.26 -2.78 0.34 0 0 Z M88.95 202.25 C88.95 202.58 88.95 202.91 88.95 203.25 C91.26 203.25 93.57 203.25 95.95 203.25 C95.95 202.92 95.95 202.59 95.95 202.25 C93.64 202.25 91.33 202.25 88.95 202.25 Z M58.95 204.25 C58.95 204.58 58.95 204.91 58.95 205.25 C60.93 205.25 62.91 205.25 64.95 205.25 C64.95 204.92 64.95 204.59 64.95 204.25 C62.97 204.25 60.99 204.25 58.95 204.25 Z M46.95 205.25 C50.95 206.25 50.95 206.25 50.95 206.25 Z " fill="#D9232D" transform="translate(315.0521240234375,130.7511110305786)"/>
<path d="M0 0 C1.28 0 1.28 0 2.58 0 C3.55 -0 4.53 -0.01 5.54 -0.01 C6.61 -0.01 7.68 0 8.79 0.01 C10.48 0 10.48 0 12.21 0 C15.96 -0 19.7 0.01 23.45 0.02 C26.04 0.02 28.63 0.02 31.23 0.02 C36.67 0.02 42.11 0.03 47.55 0.04 C53.84 0.06 60.14 0.06 66.43 0.06 C72.48 0.06 78.53 0.07 84.58 0.08 C87.16 0.08 89.74 0.08 92.31 0.08 C95.91 0.08 99.51 0.09 103.1 0.1 C104.18 0.1 105.25 0.1 106.36 0.1 C107.34 0.11 108.31 0.11 109.32 0.12 C110.17 0.12 111.02 0.12 111.9 0.12 C113.95 0.25 113.95 0.25 115.95 1.25 C115.95 15.11 115.95 28.97 115.95 43.25 C90.87 43.58 65.79 43.91 39.95 44.25 C40.28 61.74 40.61 79.23 40.95 97.25 C44.89 97.24 48.84 97.23 52.91 97.21 C56.72 97.21 60.53 97.2 64.34 97.19 C66.99 97.19 69.64 97.18 72.3 97.17 C76.11 97.16 79.91 97.16 83.72 97.15 C84.91 97.15 86.11 97.14 87.34 97.14 C88.44 97.14 89.54 97.14 90.67 97.14 C91.64 97.13 92.62 97.13 93.62 97.13 C95.95 97.25 95.95 97.25 97.95 98.25 C97.95 112.44 97.95 126.63 97.95 141.25 C69.73 141.74 69.73 141.74 40.95 142.25 C40.62 173.93 40.29 205.61 39.95 238.25 C25.76 238.25 11.57 238.25 -3.05 238.25 C-4.76 234.83 -4.19 230.9 -4.19 227.14 C-4.19 226.18 -4.19 225.23 -4.19 224.24 C-4.2 221.02 -4.2 217.8 -4.2 214.57 C-4.2 212.27 -4.2 209.97 -4.21 207.67 C-4.22 201.4 -4.22 195.13 -4.22 188.86 C-4.22 183.64 -4.22 178.41 -4.23 173.19 C-4.24 161.57 -4.24 149.96 -4.24 138.35 C-4.24 137.3 -4.24 137.3 -4.24 136.23 C-4.24 135.53 -4.24 134.84 -4.24 134.12 C-4.24 122.8 -4.25 111.47 -4.26 100.15 C-4.27 88.54 -4.28 76.92 -4.28 65.31 C-4.28 58.78 -4.28 52.26 -4.29 45.74 C-4.3 39.6 -4.3 33.47 -4.3 27.34 C-4.3 25.08 -4.3 22.82 -4.3 20.57 C-4.31 17.5 -4.31 14.43 -4.3 11.36 C-4.3 10.46 -4.31 9.55 -4.31 8.62 C-4.27 0.52 -4.27 0.52 0 0 Z " fill="#D9232D" transform="translate(621.0521240234375,130.7511110305786)"/>
<path d="M0 0 C0.95 0 1.91 0 2.89 0 C4.53 -0 4.53 -0 6.21 -0.01 C7.41 -0.01 8.62 0 9.86 0.01 C11.12 0 12.39 0 13.69 0 C17.17 -0 20.64 0 24.12 0.01 C27.75 0.02 31.38 0.02 35.01 0.02 C41.11 0.02 47.21 0.03 53.31 0.04 C60.37 0.06 67.43 0.06 74.49 0.06 C81.27 0.06 88.05 0.07 94.83 0.08 C97.72 0.08 100.61 0.08 103.5 0.08 C107.54 0.08 111.57 0.09 115.6 0.1 C117.41 0.1 117.41 0.1 119.25 0.1 C120.35 0.11 121.44 0.11 122.57 0.12 C124 0.12 124 0.12 125.46 0.12 C127.73 0.25 127.73 0.25 129.73 1.25 C129.73 15.11 129.73 28.97 129.73 43.25 C126.64 43.31 123.54 43.37 120.36 43.43 C117.38 43.49 114.39 43.56 111.41 43.62 C109.33 43.66 107.26 43.71 105.18 43.75 C102.2 43.8 99.21 43.87 96.23 43.93 C95.3 43.95 94.36 43.97 93.4 43.98 C92.54 44 91.68 44.02 90.79 44.04 C89.65 44.07 89.65 44.07 88.48 44.09 C86.7 44.06 86.7 44.06 85.73 45.25 C85.62 47.75 85.57 50.23 85.57 52.73 C85.57 53.53 85.56 54.32 85.56 55.14 C85.54 57.82 85.53 60.49 85.52 63.17 C85.51 65.08 85.5 66.99 85.49 68.91 C85.47 74.11 85.45 79.32 85.43 84.52 C85.4 89.96 85.38 95.39 85.35 100.83 C85.3 111.13 85.25 121.43 85.21 131.73 C85.16 143.45 85.11 155.17 85.05 166.89 C84.94 191.01 84.83 215.13 84.73 239.25 C80.43 239.42 76.13 239.58 71.83 239.74 C70.63 239.79 69.42 239.84 68.18 239.89 C59.35 240.22 50.56 240.37 41.73 240.25 C40.2 237.18 40.6 233.97 40.61 230.61 C40.61 229.81 40.61 229.01 40.61 228.19 C40.6 225.5 40.61 222.81 40.62 220.12 C40.62 218.2 40.62 216.28 40.62 214.36 C40.61 209.13 40.62 203.9 40.63 198.67 C40.63 193.21 40.63 187.75 40.64 182.29 C40.64 171.95 40.65 161.6 40.66 151.26 C40.67 139.48 40.67 127.71 40.68 115.93 C40.69 91.7 40.71 67.48 40.73 43.25 C26.21 43.25 11.69 43.25 -3.27 43.25 C-4.93 39.94 -4.43 36.24 -4.44 32.59 C-4.44 31.73 -4.45 30.88 -4.45 29.99 C-4.45 28.18 -4.46 26.36 -4.46 24.55 C-4.46 21.76 -4.48 18.98 -4.5 16.19 C-4.5 14.43 -4.5 12.67 -4.5 10.91 C-4.51 10.07 -4.52 9.23 -4.52 8.37 C-4.49 0.49 -4.49 0.49 0 0 Z " fill="#D9232D" transform="translate(461.27076721191406,130.7511110305786)"/>
<path d="M0 0 C0.89 0 1.77 0 2.68 0.01 C3.59 0.01 4.49 0 5.42 0 C7.34 0 9.25 0 11.17 0.01 C14.11 0.01 17.05 0.01 19.99 0 C21.84 0 23.7 0 25.56 0.01 C26.44 0 27.32 0 28.23 0 C34.46 0.02 34.46 0.02 36.69 1.14 C37.02 66.15 37.35 131.16 37.69 198.14 C42.64 198.14 47.59 198.14 52.69 198.14 C56.91 198.3 61.13 198.48 65.35 198.72 C66.47 198.79 67.59 198.85 68.75 198.91 C71.09 199.04 73.42 199.18 75.76 199.31 C79.34 199.52 82.92 199.71 86.5 199.9 C88.78 200.03 91.07 200.16 93.35 200.29 C94.42 200.34 95.48 200.4 96.58 200.45 C97.57 200.51 98.56 200.57 99.58 200.64 C100.89 200.71 100.89 200.71 102.21 200.78 C104.69 201.14 104.69 201.14 109.69 203.14 C109.69 217.33 109.69 231.52 109.69 246.14 C74.09 244.26 74.09 244.26 56.87 243.08 C44.88 242.26 32.91 241.78 20.89 241.48 C14.32 241.31 7.78 241.05 1.22 240.62 C0.49 240.58 -0.24 240.53 -0.99 240.48 C-2.76 240.37 -4.54 240.25 -6.31 240.14 C-6.46 209.71 -6.61 179.28 -6.75 148.85 C-6.76 145.26 -6.78 141.67 -6.8 138.08 C-6.8 137.37 -6.8 136.65 -6.81 135.92 C-6.86 124.33 -6.91 112.75 -6.97 101.16 C-7.03 89.29 -7.09 77.41 -7.14 65.53 C-7.17 58.86 -7.2 52.18 -7.23 45.51 C-7.27 39.23 -7.3 32.96 -7.32 26.68 C-7.33 24.37 -7.34 22.06 -7.35 19.75 C-7.37 16.61 -7.39 13.47 -7.4 10.33 C-7.41 8.94 -7.41 8.94 -7.42 7.52 C-7.42 5.39 -7.37 3.27 -7.31 1.14 C-5.39 -0.78 -2.55 0.01 0 0 Z M45.69 199.14 C45.69 199.47 45.69 199.8 45.69 200.14 C48 200.14 50.31 200.14 52.69 200.14 C52.69 199.81 52.69 199.48 52.69 199.14 C50.38 199.14 48.07 199.14 45.69 199.14 Z M65.69 200.14 C65.69 200.47 65.69 200.8 65.69 201.14 C67.67 201.14 69.65 201.14 71.69 201.14 C71.69 200.81 71.69 200.48 71.69 200.14 C69.71 200.14 67.73 200.14 65.69 200.14 Z M97.69 202.14 C97.69 202.47 97.69 202.8 97.69 203.14 C100 203.14 102.31 203.14 104.69 203.14 C104.69 202.81 104.69 202.48 104.69 202.14 C102.38 202.14 100.07 202.14 97.69 202.14 Z " fill="#D9232D" transform="translate(771.3130950927734,130.86105346679688)"/>
<path d="M0 0 C0.86 0.01 1.72 0.01 2.6 0.02 C3.48 0.02 4.36 0.02 5.27 0.02 C7.13 0.03 8.99 0.03 10.86 0.05 C13.71 0.06 16.57 0.07 19.43 0.07 C21.24 0.07 23.04 0.08 24.85 0.08 C25.71 0.09 26.57 0.09 27.45 0.09 C33.49 0.14 33.49 0.14 35.73 1.25 C35.73 83.75 35.73 166.25 35.73 251.25 C26.05 251.25 16.6 251.16 6.98 250.44 C5.83 250.37 4.68 250.3 3.5 250.23 C2.4 250.15 1.31 250.07 0.18 249.98 C-0.8 249.91 -1.78 249.85 -2.78 249.78 C-5.68 249.17 -6.46 248.54 -8.27 246.25 C-8.65 244.32 -8.65 244.32 -8.65 242.08 C-8.66 240.8 -8.66 240.8 -8.67 239.49 C-8.66 238.55 -8.66 237.61 -8.65 236.64 C-8.65 235.64 -8.66 234.65 -8.66 233.62 C-8.67 230.26 -8.66 226.9 -8.65 223.54 C-8.65 221.14 -8.65 218.74 -8.66 216.34 C-8.67 210.49 -8.66 204.63 -8.65 198.78 C-8.63 191.97 -8.64 185.16 -8.64 178.34 C-8.64 166.19 -8.63 154.04 -8.61 141.89 C-8.59 130.09 -8.58 118.29 -8.59 106.49 C-8.6 93.65 -8.6 80.8 -8.58 67.96 C-8.58 66.59 -8.58 65.23 -8.58 63.86 C-8.58 63.18 -8.58 62.51 -8.58 61.82 C-8.57 57.06 -8.58 52.31 -8.58 47.56 C-8.58 41.17 -8.57 34.78 -8.56 28.39 C-8.55 26.03 -8.55 23.68 -8.55 21.33 C-8.56 18.13 -8.55 14.93 -8.53 11.74 C-8.54 10.79 -8.54 9.85 -8.55 8.88 C-8.54 8.03 -8.53 7.18 -8.53 6.3 C-8.53 5.56 -8.53 4.82 -8.53 4.06 C-7.85 -0.76 -3.93 0.02 0 0 Z " fill="#D9232D" transform="translate(923.27392578125,130.7477569580078)"/>
<path d="M0 0 C0.33 0 0.66 0 1 0 C1 77.55 1 155.1 1 235 C0.67 235 0.34 235 0 235 C0 157.45 0 79.9 0 0 Z " fill="#D9232D" transform="translate(763,133)"/>
<path d="M0 0 C0.33 0 0.66 0 1 0 C1 46.53 1 93.06 1 141 C0.67 141 0.34 141 0 141 C0 94.47 0 47.94 0 0 Z " fill="#D9232D" transform="translate(227,133)"/>
</svg>
